<svg id="svg" version="1.1" xmlns="http://www.w3.org/2000/svg" xmlns:xlink="http://www.w3.org/1999/xlink" width="400" height="225" viewBox="0, 0, 400,225"><g id="svgg"><path id="path0" d="M193.021 16.793 C 192.563 16.838,191.109 16.971,189.792 17.089 C 112.130 24.049,71.684 108.163,117.141 168.175 C 154.637 217.675,232.935 221.684,275.603 176.288 C 330.642 117.730,293.400 26.096,210.938 17.177 C 207.997 16.859,195.166 16.584,193.021 16.793 M206.146 17.714 C 271.445 21.588,315.683 82.152,296.059 140.808 C 282.775 180.510,244.341 206.954,199.896 206.971 C 137.004 206.995,89.734 154.312,100.422 96.107 C 109.144 48.606,154.906 14.674,206.146 17.714 M184.063 45.847 C 168.848 47.276,155.033 53.836,142.545 65.560 C 138.690 69.179,139.135 68.066,138.111 76.667 C 137.626 80.734,137.158 84.144,137.070 84.243 C 136.661 84.704,134.909 80.834,134.552 78.681 C 133.911 74.812,131.438 76.130,127.537 82.421 C 120.869 93.171,119.635 104.448,123.875 115.877 L 124.470 117.482 123.281 119.872 C 120.416 125.629,118.563 131.721,117.942 137.424 C 117.695 139.691,117.782 140.128,118.558 140.529 C 120.030 141.290,120.773 140.544,121.055 138.021 C 121.838 131.022,126.089 119.073,127.653 119.477 C 134.743 121.307,143.551 121.136,149.844 119.044 C 152.965 118.007,152.944 116.448,149.792 115.137 C 147.798 114.308,144.647 111.742,145.084 111.305 C 145.131 111.258,146.186 111.480,147.429 111.798 C 150.699 112.636,155.592 112.651,158.542 111.834 C 162.371 110.773,162.621 110.631,167.246 106.897 C 183.408 93.847,182.679 94.489,182.437 93.527 C 182.141 92.350,181.845 92.195,179.831 92.159 C 177.649 92.120,176.081 91.714,174.098 90.676 C 172.350 89.761,172.434 89.704,176.002 89.403 C 184.124 88.718,186.700 87.495,192.712 81.470 C 201.573 72.589,209.491 61.298,212.191 53.693 C 213.044 51.291,212.832 51.035,208.452 49.175 C 202.067 46.464,192.048 45.096,184.063 45.847 M195.729 49.050 C 201.539 49.939,208.958 52.217,208.958 53.112 C 208.958 54.030,205.089 61.225,204.294 61.785 C 202.782 62.851,197.604 63.814,193.928 63.713 C 191.076 63.634,190.625 63.842,190.625 65.236 C 190.625 66.599,191.141 66.777,194.992 66.741 C 196.867 66.723,198.868 66.583,199.746 66.407 C 201.786 65.999,201.787 65.995,199.132 69.407 C 187.800 83.968,183.801 86.458,171.751 86.458 C 168.159 86.458,168.099 86.466,167.595 86.970 C 165.956 88.608,170.458 93.068,175.375 94.679 C 176.839 95.158,176.954 95.012,171.962 99.021 C 169.565 100.946,166.223 103.665,164.535 105.063 C 158.715 109.882,151.655 110.772,144.606 107.574 C 141.510 106.169,140.398 107.252,141.332 110.760 C 141.871 112.785,144.644 116.458,145.633 116.458 C 145.743 116.458,145.833 116.585,145.833 116.740 C 145.833 117.835,136.415 117.967,130.780 116.952 C 128.498 116.540,128.537 116.652,129.904 114.476 C 138.802 100.302,156.242 83.273,174.385 71.042 C 177.779 68.754,177.986 68.562,177.986 67.700 C 177.986 66.848,177.383 66.250,176.525 66.250 C 174.988 66.250,160.403 76.930,153.647 83.003 C 141.436 93.979,133.728 102.557,128.111 111.423 C 126.501 113.963,126.419 113.982,125.851 111.927 C 123.126 102.074,124.935 91.238,130.635 83.262 C 131.996 81.358,131.872 81.385,132.450 82.876 C 133.654 85.980,137.163 90.161,138.363 89.921 C 139.697 89.654,139.501 90.560,141.155 76.979 L 141.916 70.729 143.198 69.409 C 147.289 65.193,153.629 60.285,159.646 56.676 C 161.838 55.361,161.870 55.378,161.298 57.558 C 159.737 63.512,160.629 67.794,163.149 66.446 C 163.793 66.101,163.962 65.378,163.733 63.952 C 163.117 60.125,165.387 53.601,167.642 52.721 C 177.007 49.064,187.154 47.738,195.729 49.050 M194.886 89.683 C 185.576 91.201,185.942 90.778,184.683 101.458 C 184.271 104.953,183.563 110.431,183.110 113.631 C 182.614 117.135,182.340 119.734,182.421 120.165 C 182.942 122.941,187.236 123.991,188.451 121.640 C 188.674 121.210,190.417 110.593,190.417 109.669 C 190.417 109.555,194.185 109.073,196.686 108.867 C 200.787 108.530,201.922 107.617,201.616 104.900 C 201.312 102.207,199.005 101.582,192.656 102.471 C 191.173 102.679,191.267 102.837,191.592 100.676 C 191.743 99.674,191.868 98.453,191.871 97.962 C 191.876 96.868,191.346 97.043,197.679 96.043 C 200.584 95.585,203.201 95.092,203.493 94.949 C 206.335 93.554,204.531 88.684,201.206 88.774 C 200.715 88.787,197.871 89.196,194.886 89.683 M253.620 103.117 C 253.036 103.359,252.841 103.977,252.280 107.374 L 251.809 110.225 250.228 110.164 L 248.646 110.104 248.711 108.958 C 248.774 107.862,249.022 106.155,249.292 104.960 C 249.580 103.687,247.445 102.763,246.469 103.739 C 245.835 104.374,243.874 118.542,244.255 119.741 C 244.788 121.420,247.329 120.543,247.566 118.598 C 247.633 118.052,247.797 116.690,247.932 115.573 L 248.176 113.542 249.840 113.542 C 251.460 113.542,251.501 113.554,251.388 114.010 C 250.582 117.280,251.079 119.375,252.660 119.375 C 254.013 119.375,254.235 118.879,254.653 114.916 C 254.858 112.979,255.254 110.000,255.533 108.297 C 255.813 106.594,256.042 104.938,256.042 104.616 C 256.042 103.571,254.631 102.699,253.620 103.117 M207.981 103.639 C 207.164 103.994,207.112 104.177,206.275 109.583 C 204.747 119.462,204.741 119.435,208.497 118.974 C 209.496 118.851,211.139 118.751,212.149 118.751 C 214.729 118.750,215.521 118.142,215.001 116.565 C 214.655 115.519,214.132 115.362,211.269 115.446 L 208.740 115.521 208.867 114.583 C 209.100 112.854,209.032 112.917,210.707 112.917 C 212.403 112.917,213.125 112.467,213.125 111.410 C 213.125 110.174,212.344 109.583,210.710 109.583 L 209.732 109.583 209.865 108.316 C 210.042 106.623,209.933 106.691,212.257 106.819 C 214.983 106.969,216.132 105.771,214.819 104.148 C 214.210 103.397,209.367 103.036,207.981 103.639 M261.523 103.544 C 260.713 103.870,260.464 104.616,259.818 108.646 C 258.079 119.499,258.066 119.436,261.865 118.970 C 262.844 118.849,264.553 118.751,265.662 118.751 C 268.305 118.750,269.115 117.963,268.231 116.254 C 267.815 115.449,267.457 115.369,264.620 115.442 C 262.585 115.494,262.193 115.455,262.222 115.200 C 262.241 115.033,262.317 114.451,262.391 113.906 L 262.526 112.917 263.985 112.917 C 265.707 112.917,266.128 112.734,266.435 111.853 C 266.896 110.529,265.927 109.592,264.091 109.586 L 263.077 109.583 263.224 108.405 C 263.449 106.605,263.316 106.694,265.611 106.820 C 268.343 106.971,269.476 105.783,268.155 104.152 C 267.597 103.463,262.811 103.024,261.523 103.544 M224.896 104.406 C 221.722 106.132,219.467 110.208,218.147 116.603 C 217.463 119.912,217.570 120.487,218.962 121.002 C 220.280 121.490,220.815 120.800,221.260 118.044 L 221.515 116.458 223.233 116.458 C 225.209 116.458,225.200 116.449,225.205 118.607 C 225.210 120.511,226.046 121.309,227.504 120.801 C 228.548 120.437,228.583 120.201,228.438 114.621 C 228.195 105.300,227.411 103.038,224.896 104.406 M233.021 104.356 C 230.052 104.728,230.136 107.809,233.111 107.687 C 234.741 107.621,234.631 107.115,234.259 112.977 C 233.907 118.519,233.938 118.803,234.939 119.183 C 235.623 119.443,236.675 119.117,237.041 118.532 C 237.255 118.190,237.902 110.415,237.915 108.043 C 237.916 107.681,238.040 107.658,239.368 107.770 C 241.629 107.959,242.619 106.482,241.188 105.052 C 240.433 104.296,236.303 103.944,233.021 104.356 M275.721 105.320 C 272.836 106.385,271.769 108.922,271.257 115.938 C 270.847 121.542,270.962 122.083,272.562 122.083 C 273.756 122.083,274.294 121.195,274.458 118.953 C 274.538 117.867,274.657 116.536,274.723 115.995 L 274.844 115.012 275.785 115.683 C 276.303 116.052,277.580 117.268,278.624 118.384 C 280.778 120.689,281.540 120.979,282.614 119.905 C 283.540 118.979,282.781 117.546,279.923 114.823 L 278.535 113.501 279.665 112.280 C 282.986 108.693,280.148 103.686,275.721 105.320 M277.882 108.827 C 278.004 109.462,275.661 111.564,275.268 111.171 C 275.005 110.908,275.508 109.860,276.256 109.112 C 277.105 108.262,277.751 108.149,277.882 108.827 M225.000 111.042 L 225.000 113.125 223.755 113.125 C 222.283 113.125,222.325 112.765,224.138 109.844 C 224.918 108.588,225.000 108.703,225.000 111.042 M267.656 142.080 C 267.194 142.443,267.101 142.748,266.882 144.632 C 266.562 147.385,266.601 147.274,265.595 148.290 C 263.311 150.596,261.376 148.531,262.610 145.104 C 263.266 143.284,262.712 142.083,261.217 142.083 C 259.981 142.083,259.235 143.572,259.021 146.469 C 258.724 150.487,260.915 153.024,264.337 152.623 L 265.444 152.493 265.066 153.152 C 264.858 153.515,264.240 154.136,263.693 154.533 C 262.149 155.653,261.879 156.577,262.803 157.574 C 264.580 159.492,268.216 155.768,269.350 150.866 C 270.103 147.616,270.507 143.189,270.107 142.579 C 269.502 141.655,268.464 141.444,267.656 142.080 M235.074 142.005 C 234.027 142.243,233.668 143.691,232.414 152.743 C 231.741 157.599,231.952 157.935,235.406 157.511 C 236.386 157.391,238.055 157.293,239.115 157.292 C 241.402 157.292,241.875 157.009,241.875 155.640 C 241.875 154.180,241.254 153.905,238.158 153.991 L 235.587 154.063 235.708 153.333 C 235.774 152.932,235.830 152.346,235.831 152.031 L 235.833 151.458 237.485 151.458 C 239.021 151.458,239.167 151.420,239.568 150.909 C 240.667 149.512,239.700 148.125,237.627 148.125 C 236.462 148.125,236.434 148.076,236.734 146.555 L 236.979 145.313 239.082 145.386 C 241.165 145.459,241.190 145.454,241.635 144.889 C 242.296 144.048,242.029 142.555,241.157 142.221 C 240.731 142.057,235.638 141.877,235.074 142.005 M249.582 143.726 C 246.155 144.838,245.135 147.329,244.590 155.915 C 244.344 159.788,244.441 160.268,245.523 160.540 C 247.206 160.962,247.673 160.187,247.983 156.448 L 248.229 153.493 249.491 154.442 C 250.666 155.326,251.646 156.299,253.263 158.188 C 254.395 159.510,256.458 159.068,256.458 157.504 C 256.458 156.781,254.502 154.244,252.929 152.927 L 251.907 152.071 252.911 151.067 C 256.322 147.656,253.903 142.323,249.582 143.726 M217.888 144.358 C 217.240 144.883,217.180 150.006,217.794 152.277 C 220.132 160.926,228.822 157.861,229.511 148.143 C 229.709 145.364,229.132 144.167,227.598 144.167 C 226.327 144.167,226.160 144.492,226.138 147.010 C 226.108 150.516,225.159 152.867,223.445 153.684 C 221.622 154.554,220.625 152.024,220.625 146.528 C 220.625 144.053,219.430 143.105,217.888 144.358 M251.332 147.206 C 251.542 147.751,249.563 149.792,248.826 149.792 C 248.474 149.792,248.474 149.732,248.823 148.900 C 249.414 147.494,251.026 146.406,251.332 147.206 " stroke="none" fill="#11215f" fill-rule="evenodd"></path><path id="path1" d="M193.229 16.372 C 189.656 16.588,186.075 16.920,185.521 17.087 C 185.177 17.190,183.771 17.423,182.396 17.603 C 181.021 17.784,179.521 18.029,179.063 18.149 C 178.604 18.268,177.479 18.489,176.563 18.640 C 175.646 18.790,174.333 19.071,173.646 19.264 C 172.958 19.457,171.880 19.736,171.250 19.884 C 170.620 20.033,169.682 20.313,169.167 20.506 C 168.651 20.700,167.573 21.028,166.771 21.235 C 165.969 21.442,164.938 21.773,164.479 21.971 C 164.021 22.168,163.177 22.472,162.604 22.645 C 162.031 22.818,161.328 23.081,161.042 23.229 C 160.755 23.377,159.865 23.758,159.063 24.075 C 158.260 24.393,157.229 24.814,156.771 25.012 C 156.313 25.210,155.797 25.428,155.625 25.497 C 155.453 25.566,155.172 25.709,155.000 25.815 C 154.828 25.921,154.375 26.123,153.993 26.265 C 153.611 26.407,153.189 26.630,153.055 26.761 C 152.922 26.892,152.272 27.217,151.611 27.483 C 150.950 27.750,150.360 28.047,150.300 28.145 C 150.240 28.242,149.753 28.515,149.217 28.752 C 148.682 28.989,148.194 29.250,148.132 29.331 C 148.071 29.412,147.646 29.675,147.188 29.914 C 145.262 30.920,143.850 31.748,143.785 31.910 C 143.747 32.005,143.615 32.083,143.492 32.083 C 143.369 32.083,142.978 32.304,142.624 32.573 C 142.269 32.843,141.683 33.216,141.322 33.402 C 140.960 33.588,140.538 33.861,140.384 34.008 C 140.230 34.155,139.476 34.681,138.709 35.176 C 137.942 35.671,137.098 36.284,136.834 36.538 C 136.570 36.792,135.839 37.363,135.208 37.806 C 134.578 38.250,133.875 38.786,133.646 38.998 C 133.417 39.210,132.715 39.780,132.087 40.264 C 130.941 41.150,129.496 42.453,127.303 44.583 C 126.655 45.214,125.645 46.175,125.060 46.721 C 124.475 47.266,123.449 48.331,122.780 49.087 C 122.110 49.843,121.281 50.761,120.938 51.126 C 120.594 51.492,119.971 52.208,119.555 52.718 C 119.138 53.228,118.616 53.851,118.396 54.101 C 118.175 54.352,117.813 54.808,117.591 55.115 C 117.369 55.422,116.906 56.037,116.563 56.481 C 116.219 56.925,115.727 57.562,115.469 57.896 C 115.211 58.230,115.000 58.606,115.000 58.731 C 115.000 58.856,114.922 58.958,114.827 58.958 C 114.646 58.958,112.150 62.689,111.133 64.479 C 110.807 65.052,110.479 65.568,110.403 65.625 C 110.327 65.682,110.199 65.940,110.118 66.198 C 110.038 66.456,109.902 66.667,109.817 66.667 C 109.731 66.667,109.532 66.995,109.375 67.396 C 109.218 67.797,109.013 68.125,108.919 68.125 C 108.826 68.125,108.750 68.226,108.750 68.350 C 108.750 68.474,108.423 69.134,108.023 69.816 C 107.623 70.499,107.238 71.288,107.167 71.570 C 107.096 71.852,106.955 72.083,106.852 72.083 C 106.750 72.083,106.664 72.201,106.660 72.344 C 106.657 72.487,106.423 73.073,106.141 73.646 C 105.859 74.219,105.628 74.805,105.627 74.948 C 105.626 75.091,105.539 75.208,105.433 75.208 C 105.328 75.208,105.182 75.480,105.109 75.813 C 105.036 76.146,104.794 76.775,104.571 77.211 C 104.349 77.648,104.167 78.172,104.167 78.377 C 104.167 78.582,104.073 78.750,103.958 78.750 C 103.844 78.750,103.749 78.914,103.749 79.115 C 103.748 79.315,103.626 79.714,103.477 80.000 C 103.328 80.286,103.076 80.990,102.917 81.563 C 102.757 82.135,102.505 82.839,102.357 83.125 C 102.208 83.411,102.085 83.804,102.085 83.998 C 102.084 84.192,102.005 84.399,101.910 84.457 C 101.778 84.539,101.273 86.295,101.155 87.083 C 101.146 87.141,101.079 87.282,101.005 87.397 C 100.932 87.513,100.804 87.982,100.721 88.439 C 100.638 88.897,100.500 89.365,100.413 89.479 C 100.326 89.594,100.187 90.203,100.104 90.833 C 100.021 91.464,99.873 92.079,99.775 92.201 C 99.676 92.324,99.478 93.285,99.335 94.337 C 99.192 95.389,99.002 96.250,98.912 96.250 C 98.823 96.250,98.746 96.648,98.741 97.135 C 98.736 97.622,98.636 98.443,98.518 98.958 C 97.579 103.072,97.438 123.112,98.336 124.820 C 98.435 125.008,98.575 125.758,98.648 126.487 C 98.721 127.216,98.862 128.000,98.961 128.229 C 99.061 128.458,99.242 129.433,99.363 130.395 C 99.484 131.357,99.665 132.247,99.765 132.374 C 99.865 132.501,100.015 133.073,100.097 133.646 C 100.180 134.219,100.320 134.781,100.410 134.896 C 100.499 135.010,100.637 135.549,100.716 136.094 C 100.794 136.638,100.947 137.083,101.054 137.083 C 101.302 137.083,101.300 136.939,101.038 136.040 C 99.317 130.145,98.192 122.304,97.989 114.792 C 96.451 57.732,147.890 12.126,208.438 16.866 C 257.734 20.726,296.934 57.465,301.364 103.958 C 305.703 149.491,274.937 191.606,227.917 204.500 C 224.427 205.457,224.084 205.741,227.430 204.904 C 231.001 204.010,232.465 203.595,233.592 203.159 C 234.194 202.926,235.109 202.599,235.625 202.432 C 236.549 202.134,237.966 201.594,240.625 200.525 C 242.037 199.957,242.743 199.643,245.000 198.578 C 245.745 198.227,246.682 197.794,247.083 197.616 C 248.372 197.046,253.357 194.345,255.098 193.274 C 257.493 191.800,258.245 191.321,259.656 190.372 C 260.555 189.766,261.650 188.990,262.090 188.646 C 262.529 188.302,263.284 187.740,263.766 187.396 C 264.249 187.052,265.029 186.465,265.499 186.092 C 265.969 185.719,266.449 185.344,266.566 185.259 C 268.915 183.541,275.563 177.214,277.979 174.397 C 278.804 173.435,279.626 172.497,279.805 172.313 C 279.984 172.130,280.499 171.514,280.950 170.946 C 281.402 170.378,281.890 169.768,282.035 169.592 C 284.067 167.120,287.489 162.199,287.496 161.736 C 287.498 161.602,287.570 161.462,287.656 161.424 C 288.114 161.220,290.395 157.329,292.399 153.333 C 292.830 152.474,293.264 151.630,293.363 151.458 C 293.463 151.286,293.604 151.005,293.678 150.833 C 293.751 150.661,293.990 150.099,294.209 149.583 C 294.427 149.068,294.691 148.458,294.794 148.229 C 294.897 148.000,295.224 147.203,295.521 146.458 C 295.818 145.714,296.147 144.917,296.254 144.688 C 296.547 144.056,297.086 142.497,297.335 141.563 C 297.458 141.104,297.638 140.640,297.737 140.531 C 297.836 140.422,297.917 140.141,297.918 139.906 C 297.919 139.671,298.046 139.236,298.201 138.938 C 298.357 138.641,298.607 137.750,298.758 136.959 C 298.909 136.168,299.105 135.422,299.194 135.302 C 299.284 135.182,299.421 134.666,299.498 134.156 C 299.576 133.646,299.713 133.135,299.802 133.021 C 299.890 132.906,300.077 132.016,300.216 131.042 C 300.355 130.068,300.540 129.177,300.626 129.063 C 300.713 128.948,300.851 128.111,300.934 127.203 C 301.016 126.295,301.160 125.404,301.252 125.224 C 302.376 123.037,302.176 104.552,300.955 97.708 C 300.781 96.734,300.495 95.094,300.320 94.063 C 300.144 93.031,299.907 92.025,299.792 91.826 C 299.677 91.627,299.583 91.205,299.582 90.888 C 299.581 90.572,299.441 90.044,299.270 89.716 C 299.098 89.388,298.958 88.944,298.958 88.729 C 298.958 88.177,298.531 86.474,298.198 85.698 C 298.043 85.337,297.917 84.850,297.917 84.616 C 297.917 84.382,297.834 84.140,297.732 84.077 C 297.630 84.014,297.482 83.615,297.402 83.190 C 297.322 82.765,297.124 82.227,296.962 81.996 C 296.800 81.764,296.667 81.398,296.667 81.184 C 296.667 80.969,296.540 80.545,296.386 80.240 C 295.847 79.179,295.446 78.223,295.194 77.396 C 295.055 76.938,294.813 76.378,294.658 76.152 C 294.502 75.926,294.375 75.574,294.375 75.370 C 294.375 75.167,294.285 75.000,294.176 75.000 C 294.067 75.000,293.916 74.675,293.842 74.278 C 293.767 73.881,293.576 73.448,293.416 73.315 C 293.256 73.183,293.123 72.968,293.121 72.839 C 293.114 72.441,290.938 68.270,290.469 67.756 C 290.326 67.599,290.208 67.345,290.208 67.191 C 290.208 67.038,289.693 66.130,289.064 65.175 C 288.434 64.219,287.918 63.320,287.918 63.177 C 287.917 63.034,287.820 62.917,287.702 62.917 C 287.583 62.917,287.418 62.753,287.333 62.552 C 287.042 61.859,285.933 60.151,284.792 58.637 C 284.161 57.802,283.505 56.911,283.333 56.658 C 283.161 56.406,282.927 56.093,282.813 55.964 C 282.698 55.835,282.328 55.354,281.990 54.896 C 281.652 54.438,281.323 54.016,281.258 53.958 C 281.192 53.901,280.871 53.526,280.543 53.125 C 280.215 52.724,279.514 51.914,278.984 51.326 C 278.454 50.737,277.411 49.576,276.667 48.745 C 275.922 47.914,274.896 46.849,274.387 46.378 C 273.877 45.906,272.705 44.768,271.782 43.847 C 270.144 42.213,267.526 39.896,266.849 39.479 C 266.662 39.365,265.596 38.568,264.479 37.708 C 261.270 35.239,256.675 32.083,256.289 32.083 C 256.181 32.083,255.977 31.944,255.836 31.774 C 255.695 31.604,255.098 31.199,254.509 30.874 C 253.919 30.549,253.063 30.064,252.604 29.797 C 250.574 28.616,248.122 27.343,246.250 26.498 C 245.505 26.162,244.380 25.652,243.750 25.364 C 243.120 25.077,242.370 24.772,242.083 24.687 C 241.797 24.602,241.469 24.461,241.354 24.375 C 241.091 24.176,237.670 22.826,236.563 22.485 C 236.104 22.343,235.448 22.110,235.104 21.965 C 234.760 21.821,233.917 21.547,233.229 21.356 C 232.542 21.165,231.676 20.872,231.305 20.704 C 230.934 20.537,229.856 20.219,228.909 19.997 C 227.962 19.776,226.521 19.417,225.707 19.200 C 224.893 18.983,223.674 18.737,222.999 18.654 C 222.323 18.570,221.677 18.425,221.562 18.331 C 221.448 18.237,220.042 17.971,218.437 17.739 C 216.833 17.508,215.146 17.262,214.688 17.193 C 210.611 16.577,197.890 16.090,193.229 16.372 M192.813 17.834 C 192.354 17.879,190.901 18.013,189.583 18.131 C 143.257 22.282,105.391 57.115,99.792 100.729 C 91.880 162.367,147.569 214.252,213.047 206.248 C 267.662 199.573,306.716 152.162,299.880 100.833 C 294.074 57.231,258.407 23.907,211.458 18.218 C 208.792 17.895,195.066 17.612,192.813 17.834 M193.333 45.628 C 200.379 46.156,210.620 49.036,212.320 50.968 C 214.643 53.610,203.723 70.817,192.787 81.743 C 186.795 87.730,183.634 89.174,175.338 89.710 L 173.119 89.853 173.892 90.378 C 175.238 91.293,177.404 91.914,179.761 92.060 C 182.840 92.251,183.758 93.605,181.917 95.236 C 177.917 98.780,162.957 110.566,161.926 110.986 C 157.525 112.780,151.646 113.128,146.875 111.876 C 146.016 111.650,145.269 111.464,145.216 111.462 C 144.210 111.425,148.865 114.710,150.707 115.337 C 151.830 115.720,152.292 116.275,152.292 117.244 C 152.292 118.471,151.134 119.086,146.702 120.212 C 142.366 121.315,135.265 121.275,129.507 120.116 L 127.239 119.659 126.850 120.298 C 124.420 124.286,121.858 132.308,121.219 137.926 C 120.939 140.382,120.548 141.042,119.368 141.042 C 118.515 141.042,117.498 140.057,117.504 139.235 C 117.533 134.782,119.840 126.723,122.968 120.152 L 124.235 117.492 123.361 114.904 C 118.908 101.718,121.974 87.095,131.279 77.135 C 132.749 75.562,134.360 76.218,134.664 78.514 C 134.920 80.441,136.706 84.527,136.949 83.741 C 137.001 83.574,137.386 80.531,137.805 76.979 C 138.224 73.427,138.621 70.193,138.688 69.792 C 138.971 68.076,146.685 61.155,153.229 56.744 C 165.232 48.654,179.805 44.615,193.333 45.628 M183.854 48.874 C 183.510 48.922,182.179 49.105,180.895 49.281 C 176.948 49.823,172.637 51.006,167.939 52.837 C 166.406 53.434,166.395 53.444,165.813 54.737 C 164.326 58.040,163.580 61.711,163.941 63.950 C 164.244 65.831,163.676 66.875,162.350 66.875 C 160.249 66.875,159.636 63.138,160.912 58.110 C 161.523 55.702,161.613 55.776,159.535 56.971 C 154.395 59.927,146.611 65.988,142.892 69.930 L 142.139 70.729 141.056 79.792 C 139.818 90.150,139.675 90.590,137.722 90.100 C 136.619 89.823,133.799 86.186,132.602 83.495 C 131.823 81.744,131.885 81.734,130.508 83.846 C 124.803 92.599,123.177 103.360,126.211 112.285 L 126.570 113.343 128.259 110.786 C 137.896 96.194,153.643 81.125,173.317 67.669 C 176.503 65.489,178.125 65.513,178.125 67.738 C 178.125 68.630,178.032 68.717,174.375 71.251 C 155.549 84.294,139.072 100.339,130.453 114.021 C 128.893 116.497,128.898 116.354,130.365 116.629 C 134.603 117.422,140.363 117.630,143.777 117.112 L 145.575 116.839 143.967 115.242 C 139.802 111.108,139.761 105.095,143.910 106.997 C 148.863 109.268,153.738 109.697,158.750 108.304 C 161.207 107.620,160.428 108.182,171.985 98.755 C 176.637 94.959,176.419 95.237,175.104 94.790 C 171.194 93.460,166.592 89.472,166.972 87.743 C 167.269 86.390,167.551 86.310,172.500 86.185 C 182.458 85.933,185.359 84.688,191.563 78.006 C 195.612 73.645,201.226 66.782,200.961 66.517 C 200.918 66.473,200.238 66.558,199.451 66.705 C 198.665 66.852,196.546 66.973,194.744 66.975 L 191.468 66.979 190.901 66.412 C 190.175 65.687,190.127 64.572,190.791 63.908 C 191.221 63.478,191.449 63.448,194.531 63.421 C 198.058 63.390,199.970 63.099,202.758 62.171 L 204.375 61.633 205.423 59.931 C 206.617 57.993,208.750 53.715,208.750 53.259 C 208.750 52.462,201.966 50.247,196.771 49.348 C 194.378 48.934,185.712 48.616,183.854 48.874 M202.141 88.763 C 204.445 89.402,205.732 92.235,204.578 94.127 C 203.980 95.108,203.398 95.284,197.917 96.139 C 195.224 96.559,192.831 96.948,192.599 97.004 C 192.226 97.093,191.236 102.139,191.533 102.436 C 191.567 102.470,192.384 102.398,193.349 102.277 C 199.607 101.490,201.765 102.268,201.751 105.305 C 201.740 107.930,200.668 108.729,196.807 108.989 C 194.373 109.152,190.669 109.649,190.535 109.829 C 190.508 109.866,190.135 112.380,189.707 115.417 C 188.641 122.973,187.838 124.142,184.632 122.803 C 182.134 121.759,181.943 120.817,182.901 114.271 C 183.236 111.979,183.895 106.870,184.365 102.917 C 185.855 90.381,185.259 91.109,195.383 89.477 C 201.990 88.411,201.184 88.497,202.141 88.763 M255.480 103.339 C 256.305 103.987,256.315 104.287,255.642 108.373 C 255.297 110.471,254.876 113.562,254.708 115.243 C 254.333 118.971,253.796 119.902,252.244 119.512 C 250.917 119.179,250.821 118.833,251.114 115.469 L 251.281 113.542 249.811 113.542 C 248.093 113.542,248.286 113.196,247.840 117.077 C 247.495 120.070,247.152 120.625,245.646 120.625 C 243.878 120.625,243.866 120.514,244.781 112.652 C 245.828 103.652,245.857 103.544,247.303 103.227 C 248.780 102.902,249.596 104.051,249.207 105.908 C 249.083 106.497,248.920 107.659,248.845 108.490 L 248.708 110.000 250.250 110.000 L 251.792 110.000 252.041 108.281 C 252.722 103.604,253.005 102.917,254.258 102.917 C 254.635 102.917,255.185 103.107,255.480 103.339 M214.277 103.663 C 215.373 104.183,215.645 105.573,214.834 106.510 C 214.572 106.814,214.157 106.875,212.368 106.875 C 209.969 106.875,210.199 106.717,209.904 108.564 L 209.784 109.316 210.908 109.432 C 214.366 109.789,214.177 113.088,210.706 112.968 C 209.518 112.927,209.167 112.980,209.167 113.199 C 209.167 113.356,209.108 113.913,209.036 114.439 L 208.905 115.394 211.552 115.353 L 214.200 115.313 214.704 115.897 C 216.123 117.541,214.955 118.950,212.187 118.935 C 211.297 118.931,209.558 118.992,208.322 119.073 C 206.080 119.218,206.073 119.217,205.519 118.663 C 204.874 118.018,204.837 118.647,205.967 111.042 C 207.190 102.802,206.851 103.333,210.882 103.333 C 212.913 103.333,213.755 103.415,214.277 103.663 M267.610 103.582 C 268.689 104.074,269.035 105.415,268.318 106.326 C 267.901 106.856,267.811 106.875,265.732 106.875 L 263.578 106.875 263.441 107.760 C 263.365 108.247,263.257 108.810,263.200 109.010 C 263.117 109.305,263.230 109.375,263.788 109.376 C 266.312 109.380,267.519 111.054,266.055 112.519 C 265.460 113.113,265.402 113.127,263.972 112.994 L 262.500 112.857 262.500 113.486 C 262.500 113.832,262.442 114.404,262.371 114.758 L 262.242 115.402 264.852 115.357 C 267.917 115.305,268.542 115.599,268.542 117.097 C 268.542 118.719,268.285 118.821,263.721 119.006 C 257.989 119.239,258.166 119.415,258.880 114.198 C 259.918 106.602,260.374 104.318,260.954 103.802 C 261.571 103.254,266.530 103.090,267.610 103.582 M227.124 104.681 C 228.147 105.704,228.511 108.729,228.531 116.391 L 228.542 120.178 227.993 120.610 C 226.488 121.794,225.142 120.775,225.033 118.369 L 224.957 116.697 223.315 116.630 L 221.674 116.563 221.444 117.708 C 220.939 120.226,220.837 120.534,220.404 120.885 C 219.522 121.600,217.866 120.983,217.616 119.847 C 217.462 119.144,218.308 114.935,219.078 112.576 C 221.042 106.561,225.061 102.617,227.124 104.681 M239.883 104.360 C 242.871 104.851,242.562 108.081,239.548 107.866 C 238.219 107.771,238.113 107.794,238.032 108.205 C 237.942 108.657,237.495 116.508,237.498 117.568 C 237.503 119.020,235.360 119.943,234.344 118.927 C 233.858 118.442,233.858 118.321,234.300 110.254 L 234.440 107.696 233.035 107.754 C 230.637 107.854,229.843 105.386,231.974 104.457 C 232.690 104.146,238.164 104.078,239.883 104.360 M279.186 105.485 C 281.949 106.943,282.121 109.982,279.585 112.518 L 278.588 113.515 279.585 114.356 C 282.620 116.915,283.822 119.373,282.448 120.211 C 281.118 121.021,280.633 120.825,278.978 118.811 C 278.066 117.700,275.278 115.208,274.948 115.208 C 274.887 115.208,274.773 116.263,274.694 117.552 C 274.458 121.404,274.055 122.186,272.380 122.045 C 270.738 121.906,270.513 119.057,271.571 111.802 C 272.343 106.509,275.759 103.675,279.186 105.485 M276.559 108.990 C 275.903 109.565,275.208 110.674,275.208 111.144 C 275.208 111.415,276.417 110.595,277.179 109.808 C 278.370 108.578,277.833 107.871,276.559 108.990 M224.141 110.000 C 222.460 112.884,222.454 113.116,224.067 113.122 L 224.904 113.125 224.839 111.510 C 224.734 108.914,224.752 108.952,224.141 110.000 M202.867 131.794 C 211.276 133.984,213.847 143.139,208.813 152.961 L 207.882 154.777 208.402 156.086 C 210.393 161.101,209.558 164.048,206.146 164.048 C 204.327 164.048,202.708 162.667,202.708 161.115 C 202.708 160.262,202.792 160.261,200.973 161.135 C 192.160 165.373,184.360 159.763,184.330 149.167 C 184.297 137.549,193.141 129.261,202.867 131.794 M101.393 138.490 C 101.550 139.148,101.764 139.840,101.867 140.026 C 101.970 140.213,102.119 140.705,102.196 141.120 C 102.274 141.535,102.406 141.875,102.490 141.875 C 102.574 141.875,102.757 142.389,102.898 143.017 C 103.038 143.646,103.241 144.214,103.347 144.280 C 103.454 144.346,103.545 144.558,103.549 144.752 C 103.553 144.946,103.737 145.479,103.958 145.938 C 104.180 146.396,104.364 146.882,104.368 147.019 C 104.372 147.155,104.703 147.905,105.103 148.685 C 105.504 149.466,105.832 150.174,105.832 150.260 C 105.834 150.527,107.379 153.631,107.655 153.921 C 107.799 154.073,107.917 154.366,107.917 154.573 C 107.917 154.780,108.057 155.066,108.229 155.208 C 108.401 155.351,108.542 155.590,108.542 155.740 C 108.542 155.889,108.659 156.136,108.802 156.287 C 108.945 156.439,109.225 156.891,109.423 157.292 C 109.983 158.425,110.667 159.595,111.406 160.688 C 111.779 161.238,112.083 161.762,112.083 161.853 C 112.083 161.944,112.271 162.188,112.500 162.396 C 112.729 162.603,112.917 162.884,112.917 163.021 C 112.917 163.157,113.104 163.438,113.333 163.646 C 113.563 163.853,113.750 164.141,113.750 164.286 C 113.750 164.430,113.820 164.580,113.906 164.618 C 113.992 164.656,114.343 165.109,114.687 165.625 C 115.030 166.141,115.363 166.609,115.426 166.667 C 115.489 166.724,115.764 167.099,116.037 167.500 C 116.310 167.901,116.660 168.370,116.815 168.542 C 117.144 168.908,117.575 169.440,118.438 170.547 C 122.440 175.682,130.978 183.944,135.310 186.875 C 135.565 187.047,136.313 187.623,136.973 188.155 C 137.633 188.687,138.420 189.249,138.722 189.405 C 139.024 189.560,139.365 189.793,139.479 189.921 C 139.695 190.162,143.897 192.917,144.050 192.917 C 144.097 192.917,144.916 193.396,145.870 193.982 C 146.824 194.568,148.026 195.263,148.542 195.526 C 153.433 198.021,155.767 199.164,155.968 199.165 C 156.100 199.166,156.615 199.400,157.114 199.685 C 157.613 199.970,158.155 200.204,158.320 200.206 C 158.484 200.207,159.000 200.391,159.465 200.615 C 160.804 201.258,163.844 202.372,166.563 203.217 C 167.938 203.645,169.625 204.170,170.313 204.386 C 171.976 204.906,174.171 205.414,174.688 205.397 C 175.218 205.380,175.267 205.396,171.563 204.401 C 138.859 195.615,112.331 171.157,102.451 140.679 C 101.347 137.274,100.861 136.268,101.393 138.490 M198.386 138.418 C 193.570 139.983,190.084 147.129,191.639 152.249 C 192.621 155.481,194.749 156.457,197.761 155.056 L 199.034 154.463 197.673 153.013 C 195.343 150.531,195.151 148.637,197.064 147.027 C 198.708 145.644,200.054 145.809,201.940 147.626 C 202.607 148.268,203.187 148.757,203.231 148.714 C 203.674 148.270,204.583 144.623,204.583 143.288 C 204.583 139.530,201.769 137.319,198.386 138.418 M269.905 142.178 C 270.952 143.224,269.940 150.983,268.346 154.142 C 266.787 157.231,263.959 159.003,262.716 157.669 C 262.016 156.918,262.080 155.701,262.851 155.104 C 263.647 154.487,265.208 152.932,265.208 152.757 C 265.208 152.673,264.465 152.604,263.559 152.604 C 260.518 152.604,258.942 150.755,258.934 147.180 C 258.924 142.906,260.661 140.629,262.516 142.484 C 263.206 143.173,263.254 143.540,262.818 144.775 C 261.656 148.070,262.870 150.267,265.012 148.742 C 266.136 147.941,266.416 147.302,266.745 144.779 C 267.150 141.681,268.389 140.661,269.905 142.178 M241.581 142.564 C 243.026 144.245,242.078 145.417,239.271 145.417 C 236.848 145.417,236.974 145.347,236.779 146.792 L 236.636 147.855 237.719 147.983 C 239.577 148.203,240.422 149.117,239.969 150.415 C 239.643 151.353,238.835 151.691,237.305 151.531 C 236.304 151.426,236.039 151.459,236.029 151.689 C 236.022 151.849,235.942 152.433,235.851 152.987 L 235.686 153.994 237.821 153.849 C 240.359 153.676,241.312 153.905,241.774 154.799 C 242.550 156.298,241.725 157.374,239.760 157.427 C 239.032 157.447,237.198 157.526,235.684 157.602 C 231.536 157.812,231.595 157.906,232.382 152.273 C 232.660 150.278,233.086 147.474,233.327 146.042 C 234.072 141.629,233.849 141.826,237.987 141.914 L 241.079 141.979 241.581 142.564 M252.584 144.014 C 255.269 145.550,255.528 148.314,253.221 150.806 L 252.104 152.012 253.473 153.350 C 256.466 156.276,257.087 157.528,256.058 158.558 C 254.932 159.684,254.394 159.480,252.105 157.061 C 251.010 155.902,249.723 154.686,249.246 154.358 L 248.379 153.761 248.261 154.641 C 248.196 155.125,248.081 156.365,248.005 157.396 C 247.815 159.964,247.420 160.625,246.073 160.625 C 244.269 160.625,244.179 160.246,244.591 154.414 C 244.965 149.137,245.533 146.965,246.994 145.229 C 248.343 143.626,250.925 143.065,252.584 144.014 M220.007 144.066 C 220.757 144.454,220.789 144.601,220.912 148.229 C 221.086 153.425,222.078 154.883,224.157 153.005 C 225.404 151.878,225.873 150.445,225.992 147.396 C 226.093 144.801,226.204 144.461,227.053 144.139 C 231.221 142.554,230.041 153.532,225.737 156.372 C 222.846 158.280,219.839 157.461,218.461 154.390 C 217.232 151.651,216.702 145.584,217.604 144.581 C 218.358 143.742,219.082 143.588,220.007 144.066 M250.625 147.034 C 249.589 147.374,248.209 149.583,249.033 149.583 C 249.485 149.583,251.250 147.920,251.250 147.495 C 251.250 147.037,251.054 146.893,250.625 147.034 M175.417 205.612 C 175.832 205.856,178.541 206.397,180.104 206.550 C 180.879 206.625,180.245 206.435,178.438 206.050 C 175.307 205.383,174.931 205.328,175.417 205.612 M221.354 206.059 C 219.668 206.431,219.078 206.617,219.792 206.552 C 221.396 206.405,224.232 205.831,224.469 205.605 C 224.754 205.334,224.410 205.384,221.354 206.059 M181.667 206.842 C 182.084 207.106,184.462 207.453,186.771 207.587 L 188.646 207.696 186.042 207.314 C 181.559 206.655,181.333 206.630,181.667 206.842 M214.271 207.202 C 212.438 207.465,210.516 207.695,210.000 207.711 C 209.484 207.728,209.194 207.793,209.354 207.857 C 209.903 208.074,218.072 207.162,218.427 206.844 C 218.701 206.598,218.121 206.648,214.271 207.202 M189.219 207.858 C 189.534 207.905,190.049 207.905,190.365 207.858 C 190.680 207.810,190.422 207.771,189.792 207.771 C 189.161 207.771,188.904 207.810,189.219 207.858 M192.243 208.203 C 193.059 208.464,206.270 208.488,206.704 208.229 C 206.941 208.088,204.584 208.021,199.363 208.021 C 194.677 208.021,191.896 208.092,192.243 208.203 " stroke="none" fill="#fbfbfb" fill-rule="evenodd"></path><path id="path2" d="M197.473 131.463 C 189.766 132.659,184.304 140.017,184.330 149.167 C 184.360 159.763,192.160 165.373,200.973 161.135 C 202.792 160.261,202.708 160.262,202.708 161.115 C 202.708 162.667,204.327 164.048,206.146 164.048 C 209.558 164.048,210.393 161.101,208.402 156.086 L 207.882 154.777 208.813 152.961 C 214.965 140.958,209.012 129.673,197.473 131.463 M202.553 138.869 C 204.646 140.319,205.148 143.150,203.947 146.734 C 203.597 147.779,203.275 148.670,203.231 148.714 C 203.187 148.757,202.607 148.268,201.940 147.626 C 200.054 145.809,198.708 145.644,197.064 147.027 C 195.151 148.637,195.343 150.531,197.673 153.013 L 199.034 154.463 197.761 155.056 C 193.817 156.891,190.960 154.199,191.314 148.982 C 191.801 141.778,198.306 135.925,202.553 138.869 " stroke="none" fill="#fcdc5c" fill-rule="evenodd"></path><path id="path3" d="M199.122 17.654 C 199.727 17.696,200.664 17.696,201.205 17.653 C 201.745 17.610,201.250 17.576,200.104 17.576 C 198.958 17.577,198.516 17.612,199.122 17.654 M271.042 43.815 C 271.042 43.851,271.346 44.156,271.719 44.492 L 272.396 45.104 271.784 44.427 C 271.214 43.796,271.042 43.654,271.042 43.815 M188.081 45.571 C 188.802 45.612,189.927 45.612,190.581 45.570 C 191.235 45.529,190.646 45.496,189.271 45.496 C 187.896 45.497,187.360 45.530,188.081 45.571 M184.013 45.774 C 184.330 45.822,184.799 45.821,185.055 45.772 C 185.311 45.722,185.052 45.683,184.479 45.685 C 183.906 45.686,183.697 45.727,184.013 45.774 M193.490 45.772 C 193.747 45.822,194.169 45.822,194.427 45.772 C 194.685 45.722,194.474 45.682,193.958 45.682 C 193.443 45.682,193.232 45.722,193.490 45.772 M181.927 45.977 C 182.128 46.029,182.456 46.029,182.656 45.977 C 182.857 45.925,182.693 45.882,182.292 45.882 C 181.891 45.882,181.727 45.925,181.927 45.977 M273.542 47.774 C 273.542 47.809,273.846 48.114,274.219 48.451 L 274.896 49.063 274.284 48.385 C 273.714 47.754,273.542 47.613,273.542 47.774 M187.240 48.696 C 187.956 48.737,189.128 48.737,189.844 48.696 C 190.560 48.655,189.974 48.622,188.542 48.622 C 187.109 48.622,186.523 48.655,187.240 48.696 M211.596 50.612 C 211.959 50.833,212.354 51.184,212.475 51.392 C 212.597 51.600,212.699 51.662,212.702 51.529 C 212.710 51.236,211.525 50.208,211.182 50.209 C 211.047 50.210,211.234 50.391,211.596 50.612 M170.664 51.601 C 170.170 51.775,169.802 51.955,169.847 52.000 C 169.943 52.095,171.875 51.461,171.875 51.335 C 171.875 51.204,171.638 51.256,170.664 51.601 M159.792 52.830 C 158.359 53.581,157.094 54.290,156.979 54.407 C 156.810 54.580,162.400 51.762,162.691 51.528 C 163.144 51.164,161.939 51.705,159.792 52.830 M207.493 52.400 C 208.119 52.693,208.703 53.046,208.792 53.185 C 208.916 53.382,208.953 53.381,208.955 53.181 C 208.959 52.911,207.755 52.229,206.875 52.003 C 206.589 51.929,206.866 52.108,207.493 52.400 M168.646 52.403 C 168.125 52.654,168.108 52.683,168.542 52.577 C 169.132 52.433,169.796 52.094,169.479 52.099 C 169.365 52.101,168.990 52.238,168.646 52.403 M167.083 53.021 C 166.797 53.185,166.656 53.319,166.771 53.319 C 166.885 53.319,167.214 53.185,167.500 53.021 C 167.786 52.857,167.927 52.723,167.813 52.723 C 167.698 52.723,167.370 52.857,167.083 53.021 M155.521 55.236 C 154.948 55.590,154.385 55.977,154.271 56.095 C 154.040 56.332,155.476 55.516,156.268 54.959 C 157.099 54.374,156.635 54.547,155.521 55.236 M211.492 55.530 C 211.143 56.296,211.210 56.459,211.587 55.763 C 211.763 55.438,211.869 55.133,211.821 55.085 C 211.773 55.037,211.625 55.237,211.492 55.530 M160.717 56.157 C 160.331 56.466,160.335 56.470,160.799 56.245 C 161.470 55.918,161.470 55.915,160.924 58.021 C 160.657 59.052,160.440 60.177,160.442 60.521 C 160.444 60.865,160.621 60.317,160.834 59.305 C 161.047 58.292,161.322 57.176,161.444 56.825 C 161.820 55.747,161.545 55.494,160.717 56.157 M204.801 60.923 C 204.558 61.316,204.246 61.683,204.107 61.740 C 203.919 61.816,203.918 61.846,204.100 61.859 C 204.316 61.873,204.817 61.288,205.291 60.469 C 205.639 59.867,205.205 60.269,204.801 60.923 M163.798 61.250 C 163.798 61.651,163.841 61.815,163.894 61.615 C 163.946 61.414,163.946 61.086,163.894 60.885 C 163.841 60.685,163.798 60.849,163.798 61.250 M145.625 62.523 L 144.271 63.789 145.677 62.598 C 146.913 61.552,147.226 61.241,147.031 61.253 C 147.003 61.255,146.370 61.827,145.625 62.523 M160.278 62.708 C 160.278 63.568,160.315 63.919,160.360 63.490 C 160.405 63.060,160.405 62.357,160.360 61.927 C 160.315 61.497,160.278 61.849,160.278 62.708 M148.121 64.967 C 146.806 66.095,145.542 67.243,145.313 67.519 C 145.083 67.795,145.411 67.549,146.042 66.972 C 146.672 66.395,147.961 65.278,148.906 64.491 C 150.448 63.206,150.754 62.917,150.569 62.917 C 150.539 62.917,149.437 63.839,148.121 64.967 M190.966 63.765 C 190.664 64.003,190.417 64.294,190.417 64.413 C 190.417 64.532,190.591 64.414,190.805 64.150 C 191.070 63.823,191.515 63.627,192.211 63.530 L 193.229 63.389 192.372 63.361 C 191.788 63.342,191.339 63.471,190.966 63.765 M196.823 63.480 C 197.081 63.530,197.503 63.530,197.760 63.480 C 198.018 63.431,197.807 63.390,197.292 63.390 C 196.776 63.390,196.565 63.431,196.823 63.480 M194.013 63.691 C 194.330 63.739,194.799 63.738,195.055 63.688 C 195.311 63.639,195.052 63.600,194.479 63.601 C 193.906 63.603,193.697 63.643,194.013 63.691 M141.396 66.424 C 139.791 68.046,138.755 69.255,138.763 69.497 C 138.774 69.816,138.817 69.791,138.981 69.375 C 139.093 69.089,140.328 67.706,141.725 66.302 C 143.122 64.898,144.214 63.750,144.153 63.750 C 144.092 63.750,142.851 64.953,141.396 66.424 M160.523 64.993 C 160.583 65.391,160.727 65.811,160.843 65.926 C 160.984 66.067,160.988 65.933,160.855 65.516 C 160.499 64.398,160.411 64.260,160.523 64.993 M205.242 66.458 C 204.528 67.490,203.987 68.333,204.041 68.333 C 204.128 68.333,206.176 65.475,206.541 64.844 C 207.004 64.042,206.376 64.823,205.242 66.458 M163.438 66.250 C 163.024 66.707,162.112 66.794,161.393 66.447 C 160.953 66.234,160.951 66.238,161.342 66.551 C 161.964 67.049,162.973 66.959,163.542 66.354 C 163.811 66.068,163.982 65.833,163.923 65.833 C 163.863 65.833,163.645 66.021,163.438 66.250 M190.818 66.302 C 191.095 66.617,191.470 66.868,191.651 66.859 C 191.932 66.844,191.934 66.826,191.667 66.728 C 191.495 66.665,191.120 66.415,190.833 66.171 L 190.313 65.729 190.818 66.302 M173.696 67.399 C 172.580 68.145,171.667 68.804,171.667 68.863 C 171.667 68.921,172.512 68.400,173.546 67.705 C 174.580 67.010,175.634 66.358,175.890 66.255 C 176.160 66.146,176.223 66.063,176.040 66.055 C 175.867 66.048,174.813 66.652,173.696 67.399 M177.009 66.248 C 177.255 66.347,177.606 66.644,177.790 66.906 C 177.974 67.169,178.125 67.286,178.125 67.166 C 178.125 66.845,177.209 66.040,176.862 66.055 C 176.697 66.062,176.763 66.149,177.009 66.248 M200.680 66.394 C 200.882 66.447,200.984 66.591,200.908 66.715 C 200.825 66.848,200.866 66.879,201.009 66.791 C 201.410 66.543,201.280 66.248,200.781 66.274 C 200.425 66.293,200.400 66.321,200.680 66.394 M197.969 66.810 C 198.169 66.863,198.497 66.863,198.698 66.810 C 198.898 66.758,198.734 66.715,198.333 66.715 C 197.932 66.715,197.768 66.758,197.969 66.810 M193.498 67.029 C 194.218 67.070,195.343 67.070,195.998 67.029 C 196.652 66.988,196.063 66.954,194.688 66.955 C 193.313 66.955,192.777 66.989,193.498 67.029 M202.617 70.156 C 201.967 71.044,201.710 71.460,202.046 71.080 C 202.775 70.256,204.022 68.542,203.892 68.542 C 203.842 68.542,203.268 69.268,202.617 70.156 M142.803 69.844 L 141.979 70.729 142.865 69.906 C 143.688 69.140,143.846 68.958,143.688 68.958 C 143.654 68.958,143.256 69.357,142.803 69.844 M138.444 71.569 C 138.362 72.442,138.339 73.200,138.393 73.254 C 138.447 73.308,138.558 72.638,138.640 71.765 C 138.722 70.892,138.744 70.133,138.690 70.079 C 138.636 70.025,138.525 70.696,138.444 71.569 M195.081 74.115 C 194.410 74.888,193.299 76.130,192.613 76.875 C 191.584 77.991,191.540 78.064,192.363 77.292 C 193.367 76.349,196.569 72.708,196.394 72.708 C 196.343 72.708,195.752 73.341,195.081 74.115 M169.271 74.704 C 167.274 76.208,165.985 77.314,167.500 76.223 C 170.155 74.312,171.684 73.102,171.406 73.130 C 171.378 73.133,170.417 73.842,169.271 74.704 M138.178 74.271 C 138.180 74.729,138.223 74.892,138.272 74.633 C 138.322 74.374,138.320 73.999,138.268 73.800 C 138.216 73.600,138.175 73.813,138.178 74.271 M163.021 75.127 L 162.188 75.873 163.073 75.211 C 163.835 74.641,164.110 74.366,163.906 74.378 C 163.878 74.380,163.479 74.717,163.021 75.127 M137.969 75.938 C 137.972 76.396,138.014 76.559,138.064 76.300 C 138.114 76.041,138.112 75.666,138.060 75.466 C 138.008 75.267,137.967 75.479,137.969 75.938 M160.573 76.996 C 159.799 77.629,159.167 78.193,159.167 78.249 C 159.167 78.305,159.823 77.821,160.625 77.173 C 161.892 76.149,162.243 75.816,162.031 75.839 C 162.003 75.842,161.346 76.362,160.573 76.996 M131.875 76.456 C 131.662 76.591,131.828 76.614,132.396 76.527 C 133.426 76.369,133.601 76.249,132.795 76.253 C 132.461 76.255,132.047 76.346,131.875 76.456 M196.966 77.135 L 196.354 77.813 197.031 77.201 C 197.404 76.864,197.708 76.559,197.708 76.524 C 197.708 76.363,197.536 76.504,196.966 77.135 M137.761 77.604 C 137.763 78.063,137.806 78.225,137.856 77.966 C 137.906 77.707,137.904 77.332,137.851 77.133 C 137.799 76.934,137.759 77.146,137.761 77.604 M130.716 77.760 L 130.104 78.438 130.781 77.826 C 131.154 77.489,131.458 77.184,131.458 77.149 C 131.458 76.988,131.286 77.129,130.716 77.760 M194.890 79.427 L 193.438 80.938 194.948 79.485 C 195.779 78.686,196.458 78.006,196.458 77.974 C 196.458 77.822,196.240 78.024,194.890 79.427 M129.354 79.427 C 128.303 80.793,128.275 80.833,128.387 80.833 C 128.445 80.833,128.881 80.318,129.357 79.688 C 129.833 79.057,130.180 78.542,130.128 78.542 C 130.077 78.542,129.729 78.940,129.354 79.427 M137.409 80.013 C 137.328 80.830,137.306 81.542,137.359 81.595 C 137.412 81.648,137.522 81.024,137.604 80.208 C 137.686 79.393,137.709 78.681,137.654 78.626 C 137.600 78.572,137.489 79.196,137.409 80.013 M127.395 82.203 C 126.460 83.664,124.791 86.743,124.795 86.996 C 124.797 87.101,125.226 86.391,125.748 85.417 C 126.270 84.443,127.067 83.060,127.519 82.344 C 127.970 81.628,128.294 81.042,128.239 81.042 C 128.183 81.042,127.804 81.564,127.395 82.203 M140.673 81.875 C 140.673 82.276,140.716 82.440,140.769 82.240 C 140.821 82.039,140.821 81.711,140.769 81.510 C 140.716 81.310,140.673 81.474,140.673 81.875 M137.136 82.604 C 137.138 83.063,137.181 83.225,137.231 82.966 C 137.281 82.707,137.279 82.332,137.226 82.133 C 137.174 81.934,137.134 82.146,137.136 82.604 M153.216 83.177 L 152.604 83.854 153.281 83.242 C 153.654 82.906,153.958 82.601,153.958 82.565 C 153.958 82.404,153.786 82.546,153.216 83.177 M190.220 83.970 C 189.367 84.768,188.149 85.769,187.512 86.193 C 186.051 87.167,185.753 87.432,186.599 87.006 C 187.428 86.588,190.045 84.480,191.136 83.352 C 192.391 82.054,191.951 82.351,190.220 83.970 M140.465 83.750 C 140.465 84.151,140.508 84.315,140.560 84.115 C 140.613 83.914,140.613 83.586,140.560 83.385 C 140.508 83.185,140.465 83.349,140.465 83.750 M155.885 85.428 C 154.596 86.575,153.542 87.561,153.542 87.617 C 153.542 87.674,154.620 86.765,155.938 85.598 C 158.071 83.709,158.471 83.323,158.281 83.337 C 158.253 83.339,157.174 84.280,155.885 85.428 M150.000 86.060 L 147.604 88.368 150.052 86.125 C 152.264 84.098,152.618 83.747,152.448 83.751 C 152.419 83.752,151.318 84.791,150.000 86.060 M182.500 84.896 C 182.099 85.050,181.911 85.180,182.083 85.183 C 182.255 85.187,182.677 85.061,183.021 84.903 C 183.825 84.535,183.451 84.530,182.500 84.896 M140.257 85.417 C 140.257 85.818,140.300 85.982,140.352 85.781 C 140.404 85.581,140.404 85.253,140.352 85.052 C 140.300 84.852,140.257 85.016,140.257 85.417 M180.625 85.417 C 180.206 85.551,180.186 85.585,180.521 85.590 C 180.750 85.593,181.125 85.515,181.354 85.417 C 181.885 85.189,181.337 85.189,180.625 85.417 M127.980 88.023 C 127.336 89.341,126.847 90.455,126.894 90.498 C 126.941 90.540,127.513 89.462,128.165 88.100 C 128.817 86.739,129.306 85.625,129.251 85.625 C 129.196 85.625,128.624 86.704,127.980 88.023 M178.229 85.833 L 177.396 85.983 178.125 85.987 C 178.526 85.990,179.135 85.921,179.479 85.833 C 180.327 85.618,179.434 85.618,178.229 85.833 M171.647 86.197 L 167.981 86.259 167.480 86.828 L 166.979 87.396 167.513 86.927 C 168.018 86.484,168.235 86.457,171.472 86.436 C 173.355 86.423,175.458 86.343,176.146 86.258 C 177.582 86.080,178.159 86.088,171.647 86.197 M140.053 86.979 C 140.055 87.438,140.098 87.600,140.147 87.341 C 140.197 87.082,140.195 86.707,140.143 86.508 C 140.091 86.309,140.050 86.521,140.053 86.979 M185.000 87.604 C 184.714 87.768,184.573 87.902,184.688 87.902 C 184.802 87.902,185.130 87.768,185.417 87.604 C 185.703 87.440,185.844 87.306,185.729 87.306 C 185.615 87.306,185.286 87.440,185.000 87.604 M135.956 88.635 C 136.495 89.260,137.068 89.821,137.230 89.883 C 137.391 89.945,136.981 89.434,136.318 88.748 C 134.818 87.194,134.673 87.149,135.956 88.635 M152.076 88.906 L 150.938 90.104 152.135 88.965 C 152.794 88.339,153.333 87.800,153.333 87.768 C 153.333 87.613,153.134 87.793,152.076 88.906 M144.372 91.406 L 141.354 94.479 144.427 91.461 C 147.282 88.657,147.594 88.333,147.445 88.333 C 147.415 88.333,146.032 89.716,144.372 91.406 M168.854 90.833 C 169.534 91.521,170.138 92.083,170.195 92.083 C 170.253 92.083,169.743 91.521,169.063 90.833 C 168.382 90.146,167.779 89.583,167.721 89.583 C 167.664 89.583,168.174 90.146,168.854 90.833 M174.219 89.733 C 174.534 89.780,175.049 89.780,175.365 89.733 C 175.680 89.685,175.422 89.646,174.792 89.646 C 174.161 89.646,173.904 89.685,174.219 89.733 M146.873 93.906 L 143.021 97.813 146.927 93.960 C 150.556 90.381,150.927 90.000,150.779 90.000 C 150.749 90.000,148.992 91.758,146.873 93.906 M182.171 92.703 C 182.895 93.836,182.645 94.460,180.896 95.883 C 178.583 97.764,177.724 98.607,179.688 97.070 C 182.908 94.548,183.314 93.858,182.275 92.679 L 181.842 92.188 182.171 92.703 M125.952 93.036 C 125.876 93.341,125.853 93.631,125.902 93.680 C 125.951 93.729,126.054 93.520,126.131 93.214 C 126.208 92.909,126.230 92.619,126.181 92.570 C 126.132 92.521,126.029 92.730,125.952 93.036 M139.556 96.414 C 138.826 97.192,137.725 98.434,137.110 99.175 C 135.915 100.611,136.490 100.025,139.314 96.927 C 140.280 95.867,141.029 95.000,140.977 95.000 C 140.926 95.000,140.287 95.636,139.556 96.414 M176.094 95.178 C 176.122 95.276,175.607 95.796,174.948 96.335 C 174.289 96.874,173.750 97.359,173.750 97.413 C 173.750 97.468,174.359 97.024,175.104 96.427 C 176.395 95.393,176.710 95.000,176.250 95.000 C 176.135 95.000,176.065 95.080,176.094 95.178 M191.958 97.168 C 191.896 97.329,191.884 97.774,191.931 98.157 C 192.010 98.797,192.019 98.783,192.050 97.984 C 192.074 97.348,192.182 97.088,192.448 97.019 C 192.790 96.929,192.789 96.922,192.441 96.899 C 192.237 96.886,192.020 97.007,191.958 97.168 M172.209 98.539 C 171.533 99.098,170.830 99.717,170.647 99.916 C 170.463 100.114,171.039 99.692,171.927 98.979 C 173.297 97.879,173.749 97.454,173.490 97.512 C 173.461 97.518,172.885 97.980,172.209 98.539 M141.875 99.063 C 141.369 99.578,141.002 100.000,141.059 100.000 C 141.116 100.000,141.577 99.578,142.083 99.063 C 142.589 98.547,142.957 98.125,142.899 98.125 C 142.842 98.125,142.381 98.547,141.875 99.063 M124.643 100.521 C 124.644 101.094,124.685 101.303,124.733 100.987 C 124.781 100.670,124.779 100.201,124.730 99.945 C 124.681 99.689,124.641 99.948,124.643 100.521 M121.307 100.625 C 121.307 101.141,121.347 101.352,121.397 101.094 C 121.447 100.836,121.447 100.414,121.397 100.156 C 121.347 99.898,121.307 100.109,121.307 100.625 M140.196 100.990 C 138.720 102.585,138.258 103.125,138.368 103.125 C 138.430 103.125,139.064 102.469,139.777 101.667 C 141.134 100.140,141.442 99.641,140.196 100.990 M197.344 102.024 C 197.659 102.072,198.174 102.072,198.490 102.024 C 198.805 101.976,198.547 101.937,197.917 101.937 C 197.286 101.937,197.029 101.976,197.344 102.024 M124.648 104.479 C 124.649 105.167,124.688 105.423,124.734 105.048 C 124.781 104.674,124.780 104.111,124.732 103.798 C 124.685 103.485,124.647 103.792,124.648 104.479 M137.161 104.531 C 136.612 105.190,136.028 105.893,135.862 106.094 C 135.696 106.294,135.608 106.458,135.667 106.458 C 135.726 106.458,136.351 105.755,137.056 104.896 C 137.762 104.036,138.298 103.333,138.248 103.333 C 138.198 103.333,137.709 103.872,137.161 104.531 M121.310 104.688 C 121.311 105.260,121.352 105.470,121.399 105.153 C 121.447 104.837,121.446 104.368,121.397 104.112 C 121.347 103.855,121.308 104.115,121.310 104.688 M167.834 106.456 C 167.158 107.015,166.455 107.634,166.272 107.832 C 166.088 108.031,166.664 107.609,167.552 106.896 C 168.922 105.795,169.374 105.370,169.115 105.428 C 169.086 105.435,168.510 105.897,167.834 106.456 M162.338 106.555 C 161.733 107.061,161.046 107.537,160.812 107.611 C 160.577 107.685,160.430 107.792,160.486 107.847 C 160.651 108.012,161.709 107.357,162.708 106.470 C 163.974 105.346,163.708 105.407,162.338 106.555 M142.500 106.528 C 142.500 106.582,142.803 106.731,143.172 106.860 C 143.542 106.989,143.753 107.009,143.641 106.904 C 143.404 106.682,142.500 106.384,142.500 106.528 M141.505 106.991 C 141.250 107.169,141.042 107.422,141.042 107.552 C 141.042 107.682,141.159 107.641,141.302 107.462 C 141.445 107.282,141.750 107.033,141.979 106.907 C 142.208 106.782,142.300 106.676,142.182 106.673 C 142.064 106.670,141.759 106.813,141.505 106.991 M145.104 107.716 C 145.792 108.044,146.495 108.315,146.667 108.317 C 146.839 108.320,146.326 108.043,145.527 107.703 C 143.697 106.923,143.458 106.930,145.104 107.716 M130.208 107.917 C 129.964 108.260,129.810 108.542,129.867 108.542 C 129.925 108.542,130.172 108.260,130.417 107.917 C 130.661 107.573,130.815 107.292,130.758 107.292 C 130.700 107.292,130.453 107.573,130.208 107.917 M97.969 108.646 C 97.972 109.104,98.014 109.267,98.064 109.008 C 98.114 108.749,98.112 108.374,98.060 108.175 C 98.008 107.975,97.967 108.188,97.969 108.646 M140.890 108.750 C 140.890 109.266,140.931 109.477,140.980 109.219 C 141.030 108.961,141.030 108.539,140.980 108.281 C 140.931 108.023,140.890 108.234,140.890 108.750 M158.229 108.443 C 157.771 108.594,157.583 108.718,157.813 108.718 C 158.042 108.718,158.557 108.592,158.958 108.438 C 159.893 108.077,159.326 108.082,158.229 108.443 M164.205 109.390 C 163.367 110.069,162.747 110.625,162.828 110.625 C 163.002 110.625,165.833 108.359,165.833 108.220 C 165.833 108.071,165.817 108.083,164.205 109.390 M147.396 108.542 C 147.625 108.640,148.000 108.718,148.229 108.715 C 148.564 108.710,148.544 108.676,148.125 108.542 C 147.413 108.314,146.865 108.314,147.396 108.542 M128.069 111.057 L 126.574 113.363 126.202 112.359 C 125.997 111.806,125.879 111.608,125.938 111.918 C 126.173 113.151,126.454 113.637,126.747 113.317 C 127.161 112.866,129.798 108.750,129.673 108.750 C 129.613 108.750,128.891 109.788,128.069 111.057 M149.271 108.955 C 149.903 109.119,152.018 109.230,151.858 109.091 C 151.810 109.050,151.068 108.966,150.208 108.905 C 149.293 108.839,148.905 108.860,149.271 108.955 M197.969 108.894 C 198.169 108.946,198.497 108.946,198.698 108.894 C 198.898 108.841,198.734 108.798,198.333 108.798 C 197.932 108.798,197.768 108.841,197.969 108.894 M154.638 109.108 C 154.955 109.156,155.424 109.154,155.680 109.105 C 155.936 109.056,155.677 109.016,155.104 109.018 C 154.531 109.019,154.322 109.060,154.638 109.108 M152.552 109.310 C 152.753 109.363,153.081 109.363,153.281 109.310 C 153.482 109.258,153.318 109.215,152.917 109.215 C 152.516 109.215,152.352 109.258,152.552 109.310 M224.848 111.875 C 224.848 112.391,224.889 112.602,224.939 112.344 C 224.988 112.086,224.988 111.664,224.939 111.406 C 224.889 111.148,224.848 111.359,224.848 111.875 M228.390 112.500 C 228.390 113.016,228.431 113.227,228.480 112.969 C 228.530 112.711,228.530 112.289,228.480 112.031 C 228.431 111.773,228.390 111.984,228.390 112.500 M146.146 112.708 C 146.593 113.167,147.006 113.542,147.064 113.542 C 147.121 113.542,146.802 113.167,146.354 112.708 C 145.907 112.250,145.494 111.875,145.436 111.875 C 145.379 111.875,145.698 112.250,146.146 112.708 M152.245 112.653 C 152.735 112.697,153.485 112.696,153.912 112.651 C 154.338 112.607,153.938 112.571,153.021 112.571 C 152.104 112.572,151.755 112.609,152.245 112.653 M99.018 115.104 C 99.019 115.677,99.060 115.887,99.108 115.570 C 99.156 115.253,99.154 114.785,99.105 114.528 C 99.056 114.272,99.016 114.531,99.018 115.104 M280.200 115.052 C 280.710 115.596,281.156 116.042,281.189 116.042 C 281.346 116.042,281.180 115.855,280.260 114.991 L 279.271 114.063 280.200 115.052 M97.973 116.042 C 97.973 116.557,98.014 116.768,98.064 116.510 C 98.113 116.253,98.113 115.831,98.064 115.573 C 98.014 115.315,97.973 115.526,97.973 116.042 M211.615 115.359 C 211.987 115.405,212.596 115.405,212.969 115.359 C 213.341 115.313,213.036 115.275,212.292 115.275 C 211.547 115.275,211.242 115.313,211.615 115.359 M264.943 115.359 C 265.313 115.405,265.969 115.405,266.402 115.360 C 266.834 115.315,266.531 115.278,265.729 115.277 C 264.927 115.276,264.573 115.313,264.943 115.359 M129.011 116.250 C 129.057 116.422,129.322 116.580,129.600 116.601 C 129.997 116.631,130.016 116.615,129.688 116.525 C 129.458 116.462,129.193 116.304,129.099 116.174 C 128.985 116.018,128.955 116.044,129.011 116.250 M222.242 116.606 C 222.501 116.656,222.876 116.654,223.075 116.601 C 223.275 116.549,223.063 116.509,222.604 116.511 C 222.146 116.513,221.983 116.556,222.242 116.606 M135.260 117.441 C 135.576 117.489,136.091 117.489,136.406 117.441 C 136.721 117.393,136.464 117.354,135.833 117.354 C 135.203 117.354,134.945 117.393,135.260 117.441 M141.094 117.441 C 141.409 117.489,141.924 117.489,142.240 117.441 C 142.555 117.393,142.297 117.354,141.667 117.354 C 141.036 117.354,140.779 117.393,141.094 117.441 M137.860 117.650 C 138.230 117.696,138.886 117.697,139.318 117.652 C 139.751 117.607,139.448 117.569,138.646 117.568 C 137.844 117.567,137.490 117.604,137.860 117.650 M151.991 117.881 C 151.844 118.342,151.094 118.738,149.325 119.287 C 148.668 119.491,148.170 119.698,148.218 119.746 C 148.344 119.872,151.056 118.953,151.597 118.601 C 152.044 118.311,152.385 117.732,152.211 117.559 C 152.162 117.509,152.062 117.654,151.991 117.881 M210.784 118.897 C 211.043 118.947,211.418 118.945,211.617 118.893 C 211.816 118.841,211.604 118.800,211.146 118.803 C 210.688 118.805,210.525 118.848,210.784 118.897 M212.555 118.899 C 212.872 118.947,213.340 118.946,213.597 118.897 C 213.853 118.847,213.594 118.808,213.021 118.810 C 212.448 118.811,212.238 118.852,212.555 118.899 M264.642 118.903 C 265.189 118.946,266.033 118.946,266.517 118.902 C 267.000 118.859,266.552 118.823,265.521 118.824 C 264.490 118.825,264.094 118.860,264.642 118.903 M126.285 120.962 C 125.377 122.803,125.536 122.855,126.484 121.027 C 126.896 120.233,127.172 119.583,127.099 119.583 C 127.025 119.583,126.658 120.204,126.285 120.962 M129.896 120.208 C 130.240 120.296,130.755 120.367,131.042 120.367 C 131.506 120.367,131.495 120.350,130.938 120.208 C 130.594 120.121,130.078 120.049,129.792 120.049 C 129.327 120.049,129.338 120.066,129.896 120.208 M145.833 120.208 C 145.421 120.340,145.399 120.375,145.729 120.375 C 145.958 120.375,146.380 120.300,146.667 120.208 C 147.079 120.076,147.101 120.042,146.771 120.042 C 146.542 120.042,146.120 120.117,145.833 120.208 M132.034 120.564 C 132.293 120.614,132.668 120.612,132.867 120.560 C 133.066 120.508,132.854 120.467,132.396 120.469 C 131.938 120.472,131.775 120.514,132.034 120.564 M144.219 120.560 C 144.419 120.613,144.747 120.613,144.948 120.560 C 145.148 120.508,144.984 120.465,144.583 120.465 C 144.182 120.465,144.018 120.508,144.219 120.560 M133.805 120.774 C 134.122 120.822,134.590 120.821,134.847 120.772 C 135.103 120.722,134.844 120.683,134.271 120.685 C 133.698 120.686,133.488 120.727,133.805 120.774 M142.448 120.772 C 142.706 120.822,143.128 120.822,143.385 120.772 C 143.643 120.722,143.432 120.682,142.917 120.682 C 142.401 120.682,142.190 120.722,142.448 120.772 M137.135 120.988 C 138.023 121.027,139.477 121.027,140.365 120.988 C 141.253 120.949,140.526 120.917,138.750 120.917 C 136.974 120.917,136.247 120.949,137.135 120.988 M125.034 123.655 C 124.685 124.421,124.751 124.584,125.129 123.888 C 125.305 123.563,125.410 123.258,125.363 123.210 C 125.315 123.162,125.167 123.362,125.034 123.655 M117.965 135.625 C 117.965 136.026,118.008 136.190,118.060 135.990 C 118.113 135.789,118.113 135.461,118.060 135.260 C 118.008 135.060,117.965 135.224,117.965 135.625 M117.612 138.004 C 117.374 140.553,118.908 141.963,120.446 140.608 L 120.938 140.175 120.422 140.504 C 118.785 141.551,117.605 140.470,117.813 138.114 C 117.894 137.203,117.914 136.458,117.859 136.458 C 117.803 136.458,117.692 137.154,117.612 138.004 M220.690 146.979 C 220.691 147.667,220.730 147.923,220.776 147.548 C 220.822 147.174,220.821 146.611,220.774 146.298 C 220.726 145.985,220.688 146.292,220.690 146.979 M217.146 147.292 C 217.146 147.922,217.185 148.180,217.233 147.865 C 217.280 147.549,217.280 147.034,217.233 146.719 C 217.185 146.404,217.146 146.661,217.146 147.292 M238.277 153.900 C 238.646 153.946,239.303 153.947,239.735 153.902 C 240.167 153.857,239.865 153.819,239.063 153.818 C 238.260 153.817,237.907 153.854,238.277 153.900 M251.250 156.146 C 251.639 156.547,252.004 156.875,252.061 156.875 C 252.118 156.875,251.847 156.547,251.458 156.146 C 251.070 155.745,250.705 155.417,250.647 155.417 C 250.590 155.417,250.861 155.745,251.250 156.146 M237.448 157.439 C 237.706 157.488,238.128 157.488,238.385 157.439 C 238.643 157.389,238.432 157.348,237.917 157.348 C 237.401 157.348,237.190 157.389,237.448 157.439 M239.323 157.439 C 239.581 157.488,240.003 157.488,240.260 157.439 C 240.518 157.389,240.307 157.348,239.792 157.348 C 239.276 157.348,239.065 157.389,239.323 157.439 M127.708 178.646 C 128.331 179.276,128.887 179.792,128.944 179.792 C 129.001 179.792,128.539 179.276,127.917 178.646 C 127.294 178.016,126.738 177.500,126.681 177.500 C 126.624 177.500,127.086 178.016,127.708 178.646 M127.292 179.649 C 127.292 179.684,127.596 179.989,127.969 180.326 L 128.646 180.938 128.034 180.260 C 127.464 179.629,127.292 179.488,127.292 179.649 M194.427 207.019 C 194.628 207.071,194.956 207.071,195.156 207.019 C 195.357 206.966,195.193 206.923,194.792 206.923 C 194.391 206.923,194.227 206.966,194.427 207.019 " stroke="none" fill="#99a0b8" fill-rule="evenodd"></path><path id="path4" d="M195.985 17.650 C 196.355 17.696,197.011 17.697,197.443 17.652 C 197.876 17.607,197.573 17.569,196.771 17.568 C 195.969 17.567,195.615 17.604,195.985 17.650 M202.555 17.649 C 202.872 17.697,203.340 17.696,203.597 17.647 C 203.853 17.597,203.594 17.558,203.021 17.560 C 202.448 17.561,202.238 17.602,202.555 17.649 M273.958 46.771 C 274.927 47.745,275.767 48.542,275.824 48.542 C 275.881 48.542,275.136 47.745,274.167 46.771 C 273.198 45.797,272.358 45.000,272.301 45.000 C 272.244 45.000,272.989 45.797,273.958 46.771 M272.188 46.458 C 272.868 47.146,273.471 47.708,273.529 47.708 C 273.586 47.708,273.076 47.146,272.396 46.458 C 271.716 45.771,271.112 45.208,271.055 45.208 C 270.997 45.208,271.507 45.771,272.188 46.458 M163.594 62.604 C 163.597 63.063,163.639 63.225,163.689 62.966 C 163.739 62.707,163.737 62.332,163.685 62.133 C 163.633 61.934,163.592 62.146,163.594 62.604 M196.094 63.685 C 196.294 63.738,196.622 63.738,196.823 63.685 C 197.023 63.633,196.859 63.590,196.458 63.590 C 196.057 63.590,195.893 63.633,196.094 63.685 M143.633 64.427 L 143.021 65.104 143.698 64.492 C 144.070 64.156,144.375 63.851,144.375 63.815 C 144.375 63.654,144.203 63.796,143.633 64.427 M190.465 65.208 C 190.465 65.609,190.508 65.773,190.560 65.573 C 190.613 65.372,190.613 65.044,190.560 64.844 C 190.508 64.643,190.465 64.807,190.465 65.208 M196.719 66.810 C 196.919 66.863,197.247 66.863,197.448 66.810 C 197.648 66.758,197.484 66.715,197.083 66.715 C 196.682 66.715,196.518 66.758,196.719 66.810 M144.989 67.656 L 144.271 68.438 145.052 67.720 C 145.779 67.051,145.929 66.875,145.770 66.875 C 145.735 66.875,145.384 67.227,144.989 67.656 M191.868 77.865 L 190.729 79.063 191.927 77.924 C 192.586 77.297,193.125 76.758,193.125 76.726 C 193.125 76.571,192.926 76.752,191.868 77.865 M195.716 78.385 L 195.104 79.063 195.781 78.451 C 196.154 78.114,196.458 77.809,196.458 77.774 C 196.458 77.613,196.286 77.754,195.716 78.385 M189.258 80.469 L 188.646 81.146 189.323 80.534 C 189.695 80.197,190.000 79.893,190.000 79.857 C 190.000 79.696,189.828 79.838,189.258 80.469 M192.594 81.719 L 191.771 82.604 192.656 81.781 C 193.480 81.015,193.637 80.833,193.480 80.833 C 193.446 80.833,193.047 81.232,192.594 81.719 M149.780 86.406 L 149.063 87.188 149.844 86.470 C 150.571 85.801,150.721 85.625,150.562 85.625 C 150.527 85.625,150.175 85.977,149.780 86.406 M146.966 89.010 L 146.354 89.688 147.031 89.076 C 147.404 88.739,147.708 88.434,147.708 88.399 C 147.708 88.238,147.536 88.379,146.966 89.010 M151.447 89.323 L 150.729 90.104 151.510 89.386 C 152.238 88.718,152.387 88.542,152.228 88.542 C 152.194 88.542,151.842 88.893,151.447 89.323 M175.573 89.522 C 175.831 89.572,176.253 89.572,176.510 89.522 C 176.768 89.472,176.557 89.432,176.042 89.432 C 175.526 89.432,175.315 89.472,175.573 89.522 M141.549 94.427 L 140.938 95.104 141.615 94.492 C 141.987 94.156,142.292 93.851,142.292 93.815 C 142.292 93.654,142.120 93.796,141.549 94.427 M139.258 96.927 L 138.646 97.604 139.323 96.992 C 139.695 96.656,140.000 96.351,140.000 96.315 C 140.000 96.154,139.828 96.296,139.258 96.927 M142.383 98.385 L 141.771 99.063 142.448 98.451 C 142.820 98.114,143.125 97.809,143.125 97.774 C 143.125 97.613,142.953 97.754,142.383 98.385 M121.315 102.604 C 121.316 103.292,121.355 103.548,121.401 103.173 C 121.447 102.799,121.446 102.236,121.399 101.923 C 121.351 101.610,121.313 101.917,121.315 102.604 M212.242 103.481 C 212.501 103.531,212.876 103.529,213.075 103.476 C 213.275 103.424,213.063 103.384,212.604 103.386 C 212.146 103.388,211.983 103.431,212.242 103.481 M265.677 103.477 C 265.878 103.529,266.206 103.529,266.406 103.477 C 266.607 103.425,266.443 103.382,266.042 103.382 C 265.641 103.382,265.477 103.425,265.677 103.477 M210.127 106.837 C 210.069 106.931,210.298 106.967,210.636 106.918 C 210.974 106.868,211.250 106.791,211.250 106.747 C 211.250 106.588,210.231 106.670,210.127 106.837 M224.741 109.740 C 224.869 111.079,224.951 111.189,224.976 110.052 C 224.989 109.451,224.925 108.958,224.834 108.958 C 224.742 108.958,224.700 109.310,224.741 109.740 M153.802 109.310 C 154.003 109.363,154.331 109.363,154.531 109.310 C 154.732 109.258,154.568 109.215,154.167 109.215 C 153.766 109.215,153.602 109.258,153.802 109.310 M97.999 112.292 C 97.999 113.953,98.032 114.633,98.071 113.802 C 98.111 112.971,98.111 111.612,98.071 110.781 C 98.032 109.951,97.999 110.630,97.999 112.292 M248.595 109.792 C 248.660 110.034,249.048 110.108,250.329 110.120 L 251.979 110.135 250.423 110.058 C 249.534 110.013,248.790 109.873,248.688 109.730 C 248.562 109.553,248.535 109.571,248.595 109.792 M300.678 112.188 C 300.680 112.646,300.723 112.809,300.772 112.550 C 300.822 112.291,300.820 111.916,300.768 111.716 C 300.716 111.517,300.675 111.729,300.678 112.188 M228.396 114.375 C 228.396 115.005,228.435 115.263,228.483 114.948 C 228.530 114.633,228.530 114.117,228.483 113.802 C 228.435 113.487,228.396 113.745,228.396 114.375 M99.011 116.771 C 99.013 117.229,99.056 117.392,99.106 117.133 C 99.156 116.874,99.154 116.499,99.101 116.300 C 99.049 116.100,99.009 116.313,99.011 116.771 M223.698 116.605 C 223.956 116.655,224.378 116.655,224.635 116.605 C 224.893 116.556,224.682 116.515,224.167 116.515 C 223.651 116.515,223.440 116.556,223.698 116.605 M225.057 117.917 C 225.057 118.432,225.097 118.643,225.147 118.385 C 225.197 118.128,225.197 117.706,225.147 117.448 C 225.097 117.190,225.057 117.401,225.057 117.917 M136.200 117.647 C 136.459 117.697,136.834 117.695,137.034 117.643 C 137.233 117.591,137.021 117.550,136.563 117.553 C 136.104 117.555,135.941 117.598,136.200 117.647 M140.365 117.647 C 140.622 117.697,141.044 117.697,141.302 117.647 C 141.560 117.597,141.349 117.557,140.833 117.557 C 140.318 117.557,140.107 117.597,140.365 117.647 M135.575 120.772 C 135.834 120.822,136.209 120.820,136.409 120.768 C 136.608 120.716,136.396 120.675,135.938 120.678 C 135.479 120.680,135.316 120.723,135.575 120.772 M140.992 120.772 C 141.251 120.822,141.626 120.820,141.825 120.768 C 142.025 120.716,141.813 120.675,141.354 120.678 C 140.896 120.680,140.733 120.723,140.992 120.772 M239.117 142.022 C 239.376 142.072,239.751 142.070,239.950 142.018 C 240.150 141.966,239.938 141.925,239.479 141.928 C 239.021 141.930,238.858 141.973,239.117 142.022 M226.104 147.292 C 226.104 147.922,226.143 148.180,226.191 147.865 C 226.239 147.549,226.239 147.034,226.191 146.719 C 226.143 146.404,226.104 146.661,226.104 147.292 M125.417 177.813 C 126.386 178.786,127.225 179.583,127.282 179.583 C 127.340 179.583,126.594 178.786,125.625 177.813 C 124.656 176.839,123.816 176.042,123.759 176.042 C 123.702 176.042,124.448 176.839,125.417 177.813 M203.594 208.060 C 203.794 208.113,204.122 208.113,204.323 208.060 C 204.523 208.008,204.359 207.965,203.958 207.965 C 203.557 207.965,203.393 208.008,203.594 208.060 " stroke="none" fill="#7c7c7c" fill-rule="evenodd"></path></g></svg>